<svg width="59" height="60" viewBox="0 0 59 60" fill="none" xmlns="http://www.w3.org/2000/svg">
<g filter="url(#filter0_d_30_326)">
<path opacity="0.4" d="M31.6084 16.5H34.0996C35.5212 16.5 36.6277 16.9612 37.3789 17.7461C38.0851 18.4841 38.5213 19.554 38.5693 20.9209L38.5742 21.1982V30.7998C38.5742 32.3003 38.1258 33.4663 37.3711 34.2539C36.6187 35.039 35.5122 35.4999 34.0908 35.5H31.6084C30.1869 35.5 29.0805 35.0391 28.3281 34.2529C27.5733 33.4642 27.125 32.296 27.125 30.79V21.2002C27.125 19.6996 27.5733 18.5337 28.3281 17.7461C29.0806 16.961 30.187 16.5 31.6084 16.5Z" fill="white" stroke="white"/>
<path d="M23.8497 22.395C23.8935 22.3951 23.9431 22.4116 23.9874 22.4594L23.9952 22.4692L24.005 22.478C24.0345 22.5067 24.0645 22.568 24.0646 22.6499C24.0646 22.7032 24.0515 22.7523 24.0245 22.7944L23.9923 22.8344L22.0089 24.9038L21.1984 25.7505H32.6144C32.7113 25.7505 32.8331 25.8463 32.8331 26.0005C32.8329 26.1543 32.7112 26.2505 32.6144 26.2505H21.1984L22.0089 27.0962L23.9923 29.1655C24.0733 29.25 24.0843 29.3951 24.0236 29.4946L23.9923 29.5337C23.9214 29.6076 23.8122 29.6174 23.7316 29.562L23.6993 29.5337L20.4884 26.1841C20.4075 26.0996 20.3976 25.9554 20.4581 25.8559L20.4884 25.8159L23.6993 22.4663C23.7506 22.4128 23.8054 22.395 23.8497 22.395Z" fill="white" stroke="white"/>
</g>
<defs>
<filter id="filter0_d_30_326" x="-7.9" y="-7.9" width="74.8" height="75.8" filterUnits="userSpaceOnUse" color-interpolation-filters="sRGB">
<feFlood flood-opacity="0" result="BackgroundImageFix"/>
<feColorMatrix in="SourceAlpha" type="matrix" values="0 0 0 0 0 0 0 0 0 0 0 0 0 0 0 0 0 0 127 0" result="hardAlpha"/>
<feOffset dy="4"/>
<feGaussianBlur stdDeviation="8.95"/>
<feComposite in2="hardAlpha" operator="out"/>
<feColorMatrix type="matrix" values="0 0 0 0 0 0 0 0 0 0 0 0 0 0 0 0 0 0 0.15 0"/>
<feBlend mode="normal" in2="BackgroundImageFix" result="effect1_dropShadow_30_326"/>
<feBlend mode="normal" in="SourceGraphic" in2="effect1_dropShadow_30_326" result="shape"/>
</filter>
</defs>
</svg>
