<svg width="59" height="60" viewBox="0 0 59 60" fill="none" xmlns="http://www.w3.org/2000/svg">
<g filter="url(#filter0_d_30_307)">
<path opacity="0.4" d="M29.1294 17.2271C29.9022 16.9488 30.8898 16.9226 32.1684 17.1782L32.7339 17.3052L32.7358 17.3062L34.3364 17.6958C36.2906 18.1728 37.4442 18.8873 38.0347 19.8804C38.5913 20.8166 38.7143 22.1118 38.3491 23.9546L38.27 24.3306L37.3306 28.5103V28.5112C36.937 30.276 36.369 31.4219 35.6118 32.0981C34.9209 32.7151 34.0077 32.9967 32.7407 32.9136L32.4829 32.8921H32.4741C32.1387 32.8641 31.7791 32.8093 31.395 32.7271L31.0024 32.6353L31.0005 32.6343L29.3901 32.2349C27.4449 31.753 26.2935 31.0381 25.7026 30.0454C25.1459 29.1101 25.0203 27.8173 25.3852 25.9751L25.4643 25.6001V25.5991L26.4038 21.4097C26.5676 20.6835 26.7569 20.0558 26.98 19.5317L27.0776 19.313L27.0786 19.3101C27.5982 18.1887 28.2684 17.5371 29.1294 17.2271Z" fill="white" stroke="white"/>
<path d="M25.7958 19.8432C25.7203 20.071 25.6498 20.3085 25.5839 20.5551L25.4277 21.1898V21.1908L24.4892 25.3803C24.0092 27.5164 24.0541 29.2322 24.8427 30.557C25.5848 31.8038 26.9185 32.5943 28.7724 33.1068L29.1493 33.2055L30.7577 33.6039V33.6049C30.8161 33.6196 30.8749 33.6313 30.9325 33.6449C30.7464 33.726 30.5498 33.8056 30.3417 33.8822L30.0195 33.9965L30.0185 33.9975L28.5068 34.516C26.6529 35.1397 25.3664 35.1449 24.4169 34.6381C23.5213 34.1599 22.8001 33.1606 22.2148 31.4359L22.0995 31.0815L20.873 27.1322H20.8739C20.2744 25.1917 20.2628 23.8266 20.7558 22.8158C21.2153 21.8737 22.1694 21.1256 23.8114 20.5229L24.1493 20.4037L24.1523 20.4027L25.6601 19.8842L25.6611 19.8852C25.7062 19.8702 25.7516 19.8574 25.7958 19.8432Z" fill="white" stroke="white"/>
<path d="M34.7613 24.51C34.7038 24.51 34.6463 24.5 34.5792 24.49L29.9313 23.26C29.5479 23.16 29.3179 22.75 29.4138 22.35C29.5096 21.95 29.9025 21.71 30.2858 21.81L34.9338 23.04C35.3171 23.14 35.5471 23.55 35.4513 23.95C35.3746 24.28 35.0775 24.51 34.7613 24.51Z" fill="white"/>
<path d="M31.9533 27.89C31.8958 27.89 31.8383 27.88 31.7713 27.87L28.9825 27.13C28.5992 27.03 28.3692 26.62 28.465 26.22C28.5608 25.82 28.9538 25.58 29.3371 25.68L32.1258 26.42C32.5092 26.52 32.7392 26.93 32.6433 27.33C32.5667 27.67 32.2792 27.89 31.9533 27.89Z" fill="white"/>
</g>
<defs>
<filter id="filter0_d_30_307" x="-7.9" y="-7.9" width="74.8" height="75.8" filterUnits="userSpaceOnUse" color-interpolation-filters="sRGB">
<feFlood flood-opacity="0" result="BackgroundImageFix"/>
<feColorMatrix in="SourceAlpha" type="matrix" values="0 0 0 0 0 0 0 0 0 0 0 0 0 0 0 0 0 0 127 0" result="hardAlpha"/>
<feOffset dy="4"/>
<feGaussianBlur stdDeviation="8.95"/>
<feComposite in2="hardAlpha" operator="out"/>
<feColorMatrix type="matrix" values="0 0 0 0 0 0 0 0 0 0 0 0 0 0 0 0 0 0 0.15 0"/>
<feBlend mode="normal" in2="BackgroundImageFix" result="effect1_dropShadow_30_307"/>
<feBlend mode="normal" in="SourceGraphic" in2="effect1_dropShadow_30_307" result="shape"/>
</filter>
</defs>
</svg>
