<svg width="59" height="60" viewBox="0 0 59 60" fill="none" xmlns="http://www.w3.org/2000/svg">
<g filter="url(#filter0_d_30_317)">
<path opacity="0.4" d="M31.6208 17.6373C31.9217 17.1096 32.5277 16.9288 33.0124 17.1627L33.1081 17.2144L33.1149 17.2193L34.7731 18.2095C35.3647 18.5623 35.6055 19.3478 35.3259 19.9996L35.2634 20.1275C34.7771 21.0031 34.6741 21.9069 35.071 22.6255C35.4719 23.3516 36.2888 23.7203 37.2721 23.7203C37.9744 23.7203 38.5923 24.3275 38.5925 25.1197V26.8804C38.5922 27.6661 37.9806 28.2798 37.2721 28.2798C36.2888 28.2798 35.4719 28.6485 35.071 29.3746C34.6747 30.0922 34.7769 30.9943 35.2614 31.8687V31.8697C35.613 32.5118 35.4308 33.3077 34.8874 33.7144L34.7731 33.7906L33.1149 34.7808L33.1081 34.7847C32.6415 35.0744 32.025 34.9447 31.6852 34.4634L31.6208 34.3619L31.5182 34.1773C31.0387 33.3056 30.3312 32.7428 29.5085 32.7427C28.7374 32.7427 28.0647 33.237 27.5846 34.0172L27.4909 34.1773L27.3884 34.3619C27.0874 34.8898 26.4815 35.0716 25.9967 34.8375L25.902 34.7847L25.8942 34.7808L24.236 33.7906L24.1227 33.7144C23.615 33.3338 23.4224 32.6089 23.6833 32.0005L23.7467 31.8726C24.233 30.9971 24.335 30.0932 23.9382 29.3746C23.5372 28.6487 22.721 28.28 21.738 28.2798C21.0295 28.2798 20.4169 27.6661 20.4167 26.8804V25.1197C20.4168 24.334 21.0295 23.7203 21.738 23.7203C22.721 23.7202 23.5372 23.3513 23.9382 22.6255C24.3103 21.9517 24.2434 21.1151 23.8327 20.2916L23.7467 20.1275C23.3972 19.4961 23.5788 18.6935 24.1227 18.2857L24.236 18.2095L25.8942 17.2193L25.902 17.2144C26.3687 16.925 26.9853 17.0553 27.3249 17.5367L27.3884 17.6373L27.4909 17.8228C27.9704 18.6946 28.6789 19.2574 29.5016 19.2574C30.2724 19.2572 30.9445 18.7628 31.4245 17.983L31.5182 17.8228L31.6208 17.6373Z" fill="white" stroke="white"/>
<path d="M29.4997 23.25C30.9238 23.25 32.1149 24.4609 32.1149 26C32.1149 27.5391 30.9238 28.75 29.4997 28.75C28.0757 28.7498 26.8854 27.5389 26.8854 26C26.8854 24.4611 28.0757 23.2502 29.4997 23.25Z" fill="white" stroke="white"/>
</g>
<defs>
<filter id="filter0_d_30_317" x="-7.9" y="-7.9" width="74.8" height="75.8" filterUnits="userSpaceOnUse" color-interpolation-filters="sRGB">
<feFlood flood-opacity="0" result="BackgroundImageFix"/>
<feColorMatrix in="SourceAlpha" type="matrix" values="0 0 0 0 0 0 0 0 0 0 0 0 0 0 0 0 0 0 127 0" result="hardAlpha"/>
<feOffset dy="4"/>
<feGaussianBlur stdDeviation="8.95"/>
<feComposite in2="hardAlpha" operator="out"/>
<feColorMatrix type="matrix" values="0 0 0 0 0 0 0 0 0 0 0 0 0 0 0 0 0 0 0.15 0"/>
<feBlend mode="normal" in2="BackgroundImageFix" result="effect1_dropShadow_30_317"/>
<feBlend mode="normal" in="SourceGraphic" in2="effect1_dropShadow_30_317" result="shape"/>
</filter>
</defs>
</svg>
