<svg width="23" height="24" viewBox="0 0 23 24" fill="none" xmlns="http://www.w3.org/2000/svg">
<path d="M3.33973 19.5941L3.33985 19.594L3.33313 19.5844C2.74377 18.7377 2.4165 17.6045 2.4165 16.19V7.81003C2.4165 6.17826 2.85665 4.91258 3.6167 4.03642C4.27813 3.27394 5.21605 2.76669 6.419 2.58617V21.4232C5.55983 21.2928 4.83997 20.9945 4.26118 20.5526L4.2613 20.5525L4.25004 20.5444C3.89736 20.2903 3.58479 19.9645 3.33973 19.5941Z" fill="white" stroke="white"/>
<path d="M19.6599 4.40592L19.6598 4.40599L19.6665 4.41564C20.2558 5.26236 20.5831 6.39554 20.5831 7.81V16.19C20.5831 17.9164 20.0912 19.2323 19.2463 20.114C18.404 20.993 17.1537 21.5 15.5152 21.5H8.85645V2.5H15.5152C16.8589 2.5 17.9343 2.83794 18.7399 3.44848L18.7398 3.4486L18.7496 3.45567C19.1023 3.70977 19.4148 4.03557 19.6599 4.40592ZM15.2149 15.436C15.6781 14.9527 15.6782 14.1679 15.2153 13.6845C15.2152 13.6843 15.2151 13.6842 15.2149 13.684L13.609 12L15.2149 10.316C15.2151 10.3158 15.2152 10.3157 15.2153 10.3155C15.6782 9.8321 15.6781 9.04731 15.2149 8.56405C14.7402 8.06865 13.9519 8.06865 13.4771 8.56405L11.0238 11.124C10.5605 11.6074 10.5605 12.3926 11.0238 12.876L13.4771 15.436C13.7179 15.6872 14.0316 15.81 14.346 15.81C14.6604 15.81 14.9742 15.6872 15.2149 15.436Z" fill="white" stroke="white"/>
</svg>
