<svg width="23" height="24" viewBox="0 0 23 24" fill="none" xmlns="http://www.w3.org/2000/svg">
<path d="M4.25004 3.45567L4.25012 3.45579L4.25976 3.44848C5.06534 2.83794 6.14068 2.5 7.48442 2.5H14.1432V21.5H7.48442C5.84588 21.5 4.59566 20.993 3.75333 20.114C2.90837 19.2323 2.4165 17.9164 2.4165 16.19V7.81C2.4165 6.39554 2.74377 5.26236 3.33313 4.41564L3.33324 4.41572L3.33973 4.40592C3.58479 4.03557 3.89736 3.70977 4.25004 3.45567ZM9.5225 15.436L11.9758 12.876C12.4391 12.3926 12.4391 11.6074 11.9758 11.124L9.5225 8.56405C9.04447 8.06524 8.27031 8.07409 7.79059 8.55798C7.31115 9.04159 7.30987 9.83286 7.78673 10.3181L9.3906 12L7.78468 13.684C7.7845 13.6842 7.78433 13.6844 7.78415 13.6846C7.32142 14.168 7.32159 14.9527 7.78468 15.436C8.02545 15.6872 8.33919 15.81 8.65359 15.81C8.96798 15.81 9.28172 15.6872 9.5225 15.436Z" fill="white" stroke="white"/>
<path d="M18.75 20.5444L18.7499 20.5442L18.7389 20.5526C18.1601 20.9945 17.4402 21.2928 16.5811 21.4232V2.58617C17.784 2.76669 18.7219 3.27394 19.3834 4.03642C20.1434 4.91258 20.5836 6.17826 20.5836 7.81003V16.19C20.5836 17.6045 20.2563 18.7377 19.6669 19.5844L19.6668 19.5843L19.6603 19.5941C19.4153 19.9645 19.1027 20.2903 18.75 20.5444Z" fill="white" stroke="white"/>
</svg>
